# File created by Blade
# Date/Time:  Tue Jan 27 19:58:31 2015
# Frame Rate: 120.000 fps
#------------------------------------------------------
:FULLY-SPECIFIED
:DEGREES
2420
root 7.452946 33.044279 4.209822 6.998850 -27.938036 -23.212621
Spine 8.518298 19.607313 18.969195
Head 2.463509 -2.115452 -0.092368
LeftShoulder -17.457333 2.297933 28.003809
LeftArm -8.000922 -5.121942 -87.050657
LeftForeArm -22.712154 -0.000000 124.890283
LeftHand 8.880637 -0.000000 -32.740978
LeftHandThumb1 -26.253704 0.000000 33.147579
RightShoulder -16.023052 -15.141166 -26.571832
RightArm 7.170532 -0.120894 76.314156
RightForeArm -14.017728 -0.000000 14.113722
RightHand 19.022028 -0.000000 7.334162
RightHandThumb1 -24.326973 -0.000000 -32.862282
LeftUpLeg 11.172078 13.193689 8.161037
LeftLeg -1.030286 -0.000000 0.000000
LeftFoot -24.701720 27.530551 -17.042288
LeftToeBase 17.872560 -0.000000 -0.000000
RightUpLeg -65.478804 -47.915612 -4.163525
RightLeg 119.131781 -0.000000 -0.000000
RightFoot 33.440804 -18.828566 18.076245
RightToeBase 14.683653 -0.000000 -0.000000
2421
root 7.458568 33.049117 4.198967 7.052733 -27.903851 -23.223445
Spine 8.437070 19.559120 18.954507
Head 2.452209 -2.066345 -0.077376
LeftShoulder -17.369271 2.271663 28.004249
LeftArm -7.939051 -4.746395 -87.223344
LeftForeArm -22.955876 -0.000000 124.971593
LeftHand 8.716610 -0.000000 -32.767757
LeftHandThumb1 -26.253704 0.000000 33.147579
RightShoulder -16.087156 -15.218859 -26.538139
RightArm 7.167902 -0.085236 76.384330
RightForeArm -13.958226 0.000000 14.119750
RightHand 19.103601 -0.000000 7.247317
RightHandThumb1 -24.326973 -0.000000 -32.862282
LeftUpLeg 11.114991 13.172280 8.171390
LeftLeg -1.064795 -0.000000 0.000000
LeftFoot -24.742886 27.419688 -17.182592
LeftToeBase 18.086023 -0.000000 -0.000000
RightUpLeg -65.296921 -47.768996 -4.413512
RightLeg 118.881088 -0.000000 -0.000000
RightFoot 33.589354 -18.783986 18.108021
RightToeBase 14.330673 -0.000000 -0.000000
2422
root 7.464460 33.052188 4.185878 7.101709 -27.867153 -23.208211
Spine 8.355138 19.495494 18.892803
Head 2.409045 -2.029075 -0.045536
LeftShoulder -17.275793 2.287336 28.032025
LeftArm -7.868483 -4.375718 -87.365546
LeftForeArm -23.049899 -0.000000 125.048006
LeftHand 8.840991 0.000000 -32.896272
LeftHandThumb1 -26.253704 0.000000 33.147579
RightShoulder -16.126375 -15.281334 -26.503271
RightArm 7.153947 -0.111590 76.450772
RightForeArm -13.857026 -0.000000 14.131577
RightHand 19.112755 0.000000 7.091737
RightHandThumb1 -24.326973 -0.000000 -32.862282
LeftUpLeg 11.039177 13.123975 8.153529
LeftLeg -1.083168 -0.000000 0.000000
LeftFoot -24.777010 27.324319 -17.320784
LeftToeBase 18.216197 -0.000000 -0.000000
RightUpLeg -65.150707 -47.635042 -4.600995
RightLeg 118.593146 -0.000000 -0.000000
RightFoot 33.552120 -18.833482 18.236094
RightToeBase 14.215737 -0.000000 -0.000000
2423
root 7.468050 33.057132 4.175080 7.126428 -27.836443 -23.232224
Spine 8.336572 19.405719 18.885674
Head 2.310810 -1.977191 -0.015410
LeftShoulder -17.196245 2.342481 28.033038
LeftArm -7.804977 -3.987870 -87.451575
LeftForeArm -23.167422 -0.000000 125.169087
LeftHand 8.880362 -0.000000 -32.801238
LeftHandThumb1 -26.253704 0.000000 33.147579
RightShoulder -16.185536 -15.282659 -26.481022
RightArm 7.125271 -0.154062 76.492181
RightForeArm -13.754749 -0.000000 14.127840
RightHand 19.053516 0.000000 7.042011
RightHandThumb1 -24.326973 -0.000000 -32.862282
LeftUpLeg 11.020517 13.075333 8.186030
LeftLeg -1.108323 -0.000000 0.000000
LeftFoot -24.820974 27.205282 -17.469420
LeftToeBase 18.398120 -0.000000 -0.000000
RightUpLeg -64.921098 -47.503355 -4.746370
RightLeg 118.200525 -0.000000 -0.000000
RightFoot 33.567324 -18.871006 18.277761
RightToeBase 13.629927 -0.000000 -0.000000
2424
root 7.471054 33.059468 4.163696 7.134933 -27.815733 -23.227702
Spine 8.330446 19.319720 18.822083
Head 2.158922 -1.920446 0.066960
LeftShoulder -17.130653 2.416815 28.079347
LeftArm -7.737171 -3.642251 -87.533453
LeftForeArm -23.242366 -0.000000 125.312728
LeftHand 8.768452 0.000000 -32.750134
LeftHandThumb1 -26.253704 0.000000 33.147579
RightShoulder -16.266252 -15.292114 -26.418449
RightArm 7.039662 -0.836329 76.386905
RightForeArm -13.105744 -0.000000 14.301352
RightHand 18.793696 0.000000 6.830393
RightHandThumb1 -24.326973 -0.000000 -32.862282
LeftUpLeg 11.004907 13.033267 8.194369
LeftLeg -1.129328 -0.000000 0.000000
LeftFoot -24.873492 27.085724 -17.606032
LeftToeBase 18.603438 -0.000000 -0.000000
RightUpLeg -64.716902 -47.362983 -4.852526
RightLeg 117.805795 -0.000000 -0.000000
RightFoot 33.399736 -18.935357 18.507694
RightToeBase 14.415155 -0.000000 -0.000000
2425
root 7.474091 33.059795 4.149988 7.157486 -27.816154 -23.190346
Spine 8.298927 19.235283 18.701765
Head 1.988650 -1.829066 0.155204
LeftShoulder -17.105455 2.499758 28.139770
LeftArm -7.671170 -3.341785 -87.575139
LeftForeArm -23.343129 -0.000000 125.430131
LeftHand 8.807624 -0.000000 -32.609120
LeftHandThumb1 -26.253704 0.000000 33.147579
RightShoulder -16.301723 -15.270239 -26.380602
RightArm 7.005047 -0.866770 76.452853
RightForeArm -12.974128 -0.000000 14.302471
RightHand 18.768342 0.000000 6.636254
RightHandThumb1 -24.326973 -0.000000 -32.862282
LeftUpLeg 10.952162 13.005274 8.164269
LeftLeg -1.133677 -0.000000 0.000000
LeftFoot -24.904537 26.985381 -17.701398
LeftToeBase 18.803382 -0.000000 -0.000000
RightUpLeg -64.588411 -47.212951 -4.887389
RightLeg 117.352359 -0.000000 -0.000000
RightFoot 33.428176 -18.909141 18.494592
RightToeBase 14.048294 -0.000000 -0.000000
2426
root 7.473937 33.060535 4.136575 7.157468 -27.820016 -23.175400
Spine 8.311268 19.158108 18.613759
Head 1.803530 -1.755871 0.241497
LeftShoulder -17.076464 2.556284 28.220864
LeftArm -7.622613 -3.118321 -87.570835
LeftForeArm -23.330135 -0.000000 125.514529
LeftHand 8.855670 -0.000000 -32.687458
LeftHandThumb1 -26.253704 0.000000 33.147579
RightShoulder -16.345392 -15.290475 -26.337660
RightArm 7.013987 -0.710718 76.551081
RightForeArm -13.143179 -0.000000 14.247262
RightHand 18.777243 0.000000 6.605433
RightHandThumb1 -24.326973 -0.000000 -32.862282
LeftUpLeg 10.942879 12.945626 8.161810
LeftLeg -1.151996 -0.000000 0.000000
LeftFoot -24.861600 26.969511 -17.681242
LeftToeBase 18.683712 -0.000000 -0.000000
RightUpLeg -64.427191 -47.067645 -4.850462
RightLeg 116.882631 -0.000000 -0.000000
RightFoot 33.338033 -18.843957 18.554001
RightToeBase 14.763158 -0.000000 -0.000000
2427
root 7.472936 33.060018 4.120610 7.131509 -27.829653 -23.129475
Spine 8.359441 19.074630 18.483538
Head 1.576612 -1.694575 0.351499
LeftShoulder -17.088030 2.624199 28.303250
LeftArm -7.525199 -2.921786 -87.539004
LeftForeArm -23.334348 -0.000000 125.572221
LeftHand 8.826045 -0.000000 -32.588308
LeftHandThumb1 -26.253704 0.000000 33.147579
RightShoulder -16.388322 -15.313752 -26.249623
RightArm 7.023282 -0.480169 76.620211
RightForeArm -13.366041 -0.000000 14.259494
RightHand 18.877823 -0.000000 6.891407
RightHandThumb1 -24.326973 -0.000000 -32.862282
LeftUpLeg 10.926625 12.850885 8.127665
LeftLeg -1.144578 -0.000000 0.000000
LeftFoot -24.849800 26.934777 -17.702134
LeftToeBase 18.675007 -0.000000 -0.000000
RightUpLeg -64.284595 -46.915287 -4.792931
RightLeg 116.353691 -0.000000 -0.000000
RightFoot 33.432464 -18.799743 18.506034
RightToeBase 14.705133 -0.000000 -0.000000
2428
root 7.472623 33.057332 4.103556 7.095955 -27.852075 -23.067542
Spine 8.413052 19.007196 18.338032
Head 1.374282 -1.621561 0.454630
LeftShoulder -17.101974 2.657536 28.370796
LeftArm -7.442701 -2.806386 -87.466108
LeftForeArm -23.349136 -0.000000 125.604634
LeftHand 8.861117 0.000000 -32.481154
LeftHandThumb1 -26.253704 0.000000 33.147579
RightShoulder -16.401017 -15.334567 -26.195140
RightArm 7.017665 -0.483591 76.672503
RightForeArm -13.359747 -0.000000 14.224748
RightHand 18.982268 -0.000000 6.883649
RightHandThumb1 -24.326973 -0.000000 -32.862282
LeftUpLeg 10.913228 12.719842 8.062534
LeftLeg -1.151078 -0.000000 0.000000
LeftFoot -24.821335 27.020368 -17.672417
LeftToeBase 18.746776 -0.000000 -0.000000
RightUpLeg -64.178185 -46.761047 -4.655191
RightLeg 115.828312 -0.000000 -0.000000
RightFoot 33.475410 -18.707624 18.320071
RightToeBase 14.252493 -0.000000 -0.000000
2429
root 7.471553 33.054020 4.085168 7.070108 -27.876978 -23.018397
Spine 8.466370 18.944891 18.214076
Head 1.199961 -1.550767 0.527802
LeftShoulder -17.116804 2.639180 28.407201
LeftArm -7.395818 -2.784832 -87.345205
LeftForeArm -23.452856 -0.000000 125.615249
LeftHand 8.896032 -0.000000 -32.387645
LeftHandThumb1 -26.253704 0.000000 33.147579
RightShoulder -16.396636 -15.365193 -26.184691
RightArm 6.991424 -0.400056 76.783042
RightForeArm -13.478888 -0.000000 14.175093
RightHand 19.005221 -0.000000 6.906685
RightHandThumb1 -24.326973 -0.000000 -32.862282
LeftUpLeg 10.894370 12.602754 8.004420
LeftLeg -1.158822 -0.000000 0.000000
LeftFoot -24.799019 27.134283 -17.631423
LeftToeBase 18.640737 -0.000000 -0.000000
RightUpLeg -64.109700 -46.624390 -4.417928
RightLeg 115.305080 -0.000000 -0.000000
RightFoot 33.369180 -18.747628 18.180197
RightToeBase 13.764156 -0.000000 -0.000000
2430
root 7.468991 33.050970 4.067511 7.041649 -27.925780 -22.960899
Spine 8.513463 18.946080 18.074724
Head 1.056057 -1.509587 0.613778
LeftShoulder -17.099632 2.590017 28.434913
LeftArm -7.345466 -2.837089 -87.190455
LeftForeArm -23.554763 -0.000000 125.599278
LeftHand 8.894689 0.000000 -32.380058
LeftHandThumb1 -26.253704 0.000000 33.147579
RightShoulder -16.419517 -15.427133 -26.137300
RightArm 6.939746 -0.566419 76.826027
RightForeArm -13.373384 -0.000000 14.181785
RightHand 19.032159 -0.000000 6.785470
RightHandThumb1 -24.326973 -0.000000 -32.862282
LeftUpLeg 10.887385 12.535664 7.952194
LeftLeg -1.162616 -0.000000 0.000000
LeftFoot -24.812029 27.147459 -17.652499
LeftToeBase 18.640254 -0.000000 -0.000000
RightUpLeg -64.077599 -46.468796 -4.112053
RightLeg 114.758760 -0.000000 -0.000000
RightFoot 33.175109 -18.916799 18.236280
RightToeBase 13.822264 -0.000000 -0.000000
2431
root 7.466403 33.045914 4.049958 7.002793 -27.988709 -22.885886
Spine 8.564489 18.952504 17.913813
Head 0.925972 -1.460678 0.700495
LeftShoulder -17.099868 2.534402 28.473099
LeftArm -7.300245 -2.944759 -87.058975
LeftForeArm -23.713364 -0.000000 125.557915
LeftHand 8.886893 -0.000000 -32.362923
LeftHandThumb1 -26.253704 0.000000 33.147579
RightShoulder -16.408478 -15.481075 -26.109413
RightArm 6.895025 -0.372428 76.942459
RightForeArm -13.558765 -0.000000 14.112484
RightHand 19.016921 -0.000000 7.076035
RightHandThumb1 -24.326973 -0.000000 -32.862282
LeftUpLeg 10.899412 12.545878 7.893974
LeftLeg -1.190526 -0.000000 0.000000
LeftFoot -24.774046 27.140671 -17.630263
LeftToeBase 18.648363 -0.000000 -0.000000
RightUpLeg -64.074604 -46.298246 -3.777409
RightLeg 114.204612 -0.000000 -0.000000
RightFoot 33.058846 -19.093739 18.275956
RightToeBase 14.186910 -0.000000 -0.000000
